<?xml version="1.0" encoding="utf-8"?>
<!-- Generator: Adobe Illustrator 22.1.0, SVG Export Plug-In . SVG Version: 6.00 Build 0)  -->
<svg version="1.1" baseProfile="basic" id="Layer_1"
	 xmlns="http://www.w3.org/2000/svg" xmlns:xlink="http://www.w3.org/1999/xlink" x="0px" y="0px" viewBox="0 0 105 23"
	 xml:space="preserve">
<g>
	<path fill="#FFFFFF" d="M36.1,0.2h7.1v8.4c1-1.4,2.4-2,4.3-2c4.1,0,6.5,2.8,6.5,7.9c0,4.8-2.4,7.7-6.3,7.7c-2.4,0-4-0.9-4.9-2.7V22
		h-6.6V0.2z M43,14.4c0,2.2,0.5,3.3,1.8,3.3c1.2,0,1.8-1.1,1.8-3.3c0-2.2-0.5-3.3-1.8-3.3C43.5,11.1,43,12.2,43,14.4L43,14.4z
		 M72.2,16h-9.9c0.2,1.7,1.4,2.4,3.8,2.4c1.7,0,3.4-0.3,5.1-1v3.9c-1.6,0.7-3.9,1-6.5,1c-6.1,0-9.3-2.9-9.3-8c0-5,3.2-8,8.6-8
		c5.9,0,8.2,2.8,8.2,8.6C72.2,15,72.2,16,72.2,16z M66,13.1v-0.5c0-1.7-0.6-2.7-1.8-2.7c-1.2,0-1.9,1-1.9,2.7v0.4L66,13.1L66,13.1z
		 M82.6,6.8h3.3v4.4h-3.3v3.6c0,1.9,0.3,2.7,1.7,2.7c0.4,0,0.9-0.1,1.5-0.2v4.4c-1.5,0.5-3.1,0.6-4.7,0.6c-2,0-3.5-0.6-4.4-1.7
		c-1.2-1.5-1.2-3.3-1.2-5.7v-3.7H73V6.8h2.5V3.4l7.1-2.2V6.8L82.6,6.8z"/>
</g>
<g>
	<path fill="#F1EB4D" d="M33.9,7.6v14.6h-5.5V7.6H33.9z M31.1,1.1c0.7,0,1.4,0.3,1.9,0.8c0.5,0.5,0.8,1.1,0.8,1.9
		c0,0.8-0.3,1.4-0.8,1.9c-0.5,0.5-1.2,0.7-2,0.7s-1.5-0.2-2-0.7c-0.5-0.5-0.8-1.1-0.8-1.9c0-0.7,0.3-1.3,0.8-1.9
		C29.7,1.4,30.4,1.1,31.1,1.1z"/>
</g>
</svg>
