<svg xmlns="http://www.w3.org/2000/svg" width="44" height="44" viewBox="0 0 44 44" id="Classification.sport_18::before" x="266" y="88"><title>18</title><g transform="translate(-827 -103)" fill="none" fill-rule="evenodd"><g transform="translate(834.625 111)"><path d="M23.614 3.977c5.281 5.316 4.863 13.639-.39 18.924-5.252 5.287-13.515 5.557-18.796.242C-.853 17.828-1.027 9.26 4.225 3.974c5.252-5.286 14.108-5.312 19.389.003z" fill="#DDD"/><g transform="translate(.275)" fill="#555"><path d="M1.413 19.326c.032-1.139.054-3.343 1.322-5.599 2.768-4.924 10.064-7.714 17.422-7.714 2.456 0 4.202.512 5.403.942-.106-.192-.272-.423-.386-.609-1.185-.432-2.783-.808-5.017-.882C13.988 5.26 1.203 8.086.8 17.821c.106.338.482 1.18.613 1.505z"/><path d="M7.22 25.443c.432-.78 2.12-3.903 5.232-8.885C16.099 10.717 15.805 8.5 15.2 6.427c-.566-1.94-2.225-3.67-5.83-3.67-2.264 0-4.312.717-5.422 1.217-.2.208-.762.817-.949 1.038 5.145-2.219 9.378-1.968 11.038.452 1.989 3.574-.46 7.837-2.356 10.784-1.684 2.617-4.666 7.598-5.275 8.722 0 0 .58.343.813.473z"/><path d="M14.624.054s-.386-.023-.622-.027c-.266-.005-.665.012-.665.012 4.77 2.98 6.455 9.01 6.615 16.359.128 5.89-1.286 8.46-3.153 10.136a15.173 15.173 0 0 0 1.494-.441c.98-1.165 2.432-3.247 2.48-9.964C20.85 5.226 15.464.84 14.624.054zM26.375 17.322c-.118-1.158-.4-3.058-1.269-4.747-1.309-2.543-4.75-7.753-4.044-10.504a12.606 12.606 0 0 0-.631-.413c-.216 1.549.035 3.778 1.773 6.944 2.055 3.743 3.682 6.044 3.731 10.114 0 0 .31-.845.44-1.394z"/></g></g></g></svg>