<svg xmlns="http://www.w3.org/2000/svg" width="44" height="44" viewBox="0 0 44 44" id="Classification.sport_17::before" x="266" y="44"><title>17</title><g transform="translate(-783 -103)" fill="none" fill-rule="evenodd"><g transform="translate(782.948 102.944)"><path d="M22.897 32.12c8.06 0 14.103-4.048 14.103-8.725v-3.22c0-4.678-6.252-7.137-14.31-7.137-8.06 0-14.682 2.459-14.682 7.136v3.22c0 4.678 6.83 8.726 14.89 8.726z" fill="#888"/><path d="M22.518 12.056c7.96 0 14.534 3.145 14.534 7.275 0 4.13-6.334 8.725-14.294 8.725-7.96 0-14.706-4.595-14.706-8.725s6.507-7.275 14.466-7.275z" fill="#DDD"/></g></g></svg>