<svg xmlns="http://www.w3.org/2000/svg" width="44" height="44" viewBox="0 0 44 44" id="Classification.sport_91::before" x="354" y="44"><title>91</title><defs><path id="cna" d="M.54 5.926C.54 2.837 3.03.333 6.099.333c3.07 0 5.557 2.504 5.557 5.593S9.167 11.52 6.098 11.52C3.028 11.519.54 9.015.54 5.926z"/><radialGradient cx="17.523%" cy="77.807%" fx="17.523%" fy="77.807%" r="1.599%" id="cnc"><stop stop-color="#FFF" offset="0%"/><stop stop-color="#DDD" offset="94.44%"/></radialGradient><radialGradient cx=".014%" cy="99.943%" fx=".014%" fy="99.943%" r="2.656%" id="cnd"><stop stop-color="#FFF" offset="0%"/><stop stop-color="#DDD" offset="94.44%"/></radialGradient></defs><g transform="translate(-563 -157)" fill="none" fill-rule="evenodd"><g transform="translate(571 164.57)"><g transform="translate(9.705 .679)"><mask id="cnb" fill="#fff"><use xmlns:xlink="http://www.w3.org/1999/xlink" xlink:href="#cna"/></mask><use fill="#BBB" xmlns:xlink="http://www.w3.org/1999/xlink" xlink:href="#cna"/><path d="M12.1 13.756C7.653 12.47 4.485 8.611 4.485 8.611S3.32 7.1 2.764 5.702C2.208 4.304 1.629-1.1 1.629-1.1M6.398 7.643L1.793-1.993M9.791 5.713c-.134-.456-.164-2.259-1.156-3.756-.89-1.343-3.76-3.858-3.76-3.858M8.054 6.675c-.158-.613-.368-2.201-1.36-3.698-.89-1.343-2.811-4.105-2.811-4.105M2.574 5.325S.997 6.31.145 7.626M3.314 6.987S1.644 7.902.885 9.29" stroke="#3F3F3F" stroke-width=".3" mask="url(#cnb)"/><path d="M6.03 11.807s-1.468-.994-2.863-2.398" stroke="#3F3F3F" stroke-width=".3" fill="url(#cnc)" mask="url(#cnb)"/><path d="M2.195 3.425S.74 4.575.019 5.413" stroke="#3F3F3F" stroke-width=".3" fill="url(#cnd)" mask="url(#cnb)"/><path d="M11.869 6.634s-3.483 2.711-6.237 3.18M13.39 7.711s-3.583 2.811-6.336 3.28M11.595 4.752c-2.37 1.422-10.388 5.71-10.388 5.71" stroke="#3F3F3F" stroke-width=".3" mask="url(#cnb)"/></g><g transform="translate(0 11.384)" fill="#FFF"><g transform="translate(0 2.188)"><path d="M.931 1.27l29.945 8.587.138-.48L1.069.79l-.138.48zM.931 3.746L28.7 11.679l.137-.48L1.07 3.265l-.138.48zM.934 6.221l20.268 5.534.132-.483L1.066 5.74l-.132.482zM.931 8.695l9.15 2.626.138-.48-9.15-2.626-.138.48zM.931 11.17l2.96.85.138-.481-2.96-.85-.138.481z"/></g><path d="M29.8 9.253l-1.287 4.355.48.141 1.286-4.354-.48-.142zM27.512 8.599l-1.447 5.01.48.139 1.448-5.01-.48-.14zM25.33 7.542L23.58 13.62l.48.138 1.75-6.08-.481-.137zM22.872 7.518l-1.749 6.08.481.138 1.748-6.08-.48-.138zM20.651 6.634l-1.945 6.985.481.134 1.946-6.985-.482-.134zM18.365 5.978l-2.137 7.626.481.135 2.137-7.626-.481-.135zM11.504 4.01L8.82 13.474l.481.136 2.685-9.464-.48-.136zM13.79 4.667l-2.398 8.64.481.133 2.4-8.64-.482-.133zM9.218 3.354L6.303 13.633l.48.136L9.7 3.491l-.481-.137zM4.644 2.043L1.338 13.696l.48.136L5.126 2.18l-.481-.136zM6.93 2.699L3.848 13.603l.481.136L7.412 2.835l-.481-.136zM2.456.952L.76 6.866l.48.137L2.936 1.09l-.48-.137z"/></g><path d="M30.975 17.307L1 8.574v3.944l29.975 8.874v-4.085z" fill="#BBB"/><path d="M16.156 14.266c.18-.636-.015-1.265-.193-1.89-.179-.625-.172-1.29-.461-2.232-.135-.437-.159-.841-.477-1.413-.114-.205-.268-.826.268-.715.536.112 1.362 2.411 1.697 2.59.334.178 1.276-1.85 1.767-3.323.49-1.473.703-2.567 1.15-2.466.592.133.122 1.406-.101 2.41-.223 1.005-.455 1.747-.346 1.831.11.084.937-1.518 1.361-2.3.425-.78.757-1.828 1.273-1.629.461.179-.03 1.429-.476 2.188-.447.759-1.042 1.994-.953 2.053.16.107.042.256.997-1.443.804-1.429 1.01-1.826 1.34-1.667.401.194-.358 1.682-.745 2.381-.278.504-.833 1.555-.744 1.622.09.067.596-.81.774-1.1.179-.291.64-1.443.997-1.236.283.164-1.012 2.634-1.19 2.946-.179.313-2.032 3.252-2.835 4.078-.804.826-2.455 6.652-3.505 8.013-1.049 1.362-1.74 2.136-1.74 2.136l-7.04-.008s4.07-2.931 5.03-4.806 3.67-4.317 4.152-6.02z" fill="#EEE"/></g></g></svg>