<svg xmlns="http://www.w3.org/2000/svg" width="44" height="44" viewBox="0 0 44 44" id="Classification.sport_1::before" x="266" y="176"><title>1</title><g transform="translate(-79 -103)" fill="none" fill-rule="evenodd"><g transform="translate(87.04 111)"><path d="M.96 13.488C.96 6.038 6.999 0 14.448 0c7.45 0 13.488 6.039 13.488 13.488 0 7.45-6.039 13.488-13.488 13.488C6.998 26.976.96 20.937.96 13.488z" fill="#DDD"/><path d="M3.31 20.93c1.168-.112 5.89-.784 6.23-1.056v-.803l-6.654 1.086.425.772zM10.454 26.303c.293-1.137.723-2.583.583-2.995l-.754-.274-.552 3.097s.248.09.465.141c.104.025.2.04.258.03zM1.466 15.775l3.221-8.206-.649-.458-2.823 7.75.25.914zM10.898 15.214L7.485 7.496l-.779.097 3.51 7.87.682-.249zM4.872 5.605L3.73 5.428l-.436.52 1.212.207.366-.55zM15.33 16.334l6.355-5.962-.602-.384-6.235 5.852.482.494zM19.83 1.142c-.372-.213-.552-.196-.946-.374l3.954 3.865h1.057s-2.952-2.298-4.065-3.49v-.001zM10.453.625s-.905.761-1.477 1.736l.327.337L11.24.394l-.788.23zM25.752 9.963l-.61.532-.655 9.168.702-.596.563-9.104zM23.342 22.441c.13-.135.256-.273.38-.414l-8.53-1.286-.143.66s7.853 1.255 8.293 1.04zM19.235 6.438s-.124-.4 0-.54l-8.8-2.403-.327.512 9.127 2.43z" fill="#545454"/><path d="M15.523 15.647s-1.453-.23-3.059-.614a86.528 86.528 0 0 1-2.447-.613s-.994 1.15-1.835 2.454c-.841 1.304-1.223 3.067-1.223 3.067l3.67 3.681 5.505-2.453-.611-5.522zM26.925 18.479l-2.091-.053-3.238 3.416s-.138 2.657.13 2.91c1.375-.569 4.279-3.373 5.199-6.273zM20.72 10.74l4.636 1.515s.895-1.608 1.04-2.256c.126-.557.418-1.788.418-1.788s-.592-1.53-1.842-3.082c-.233-.27-3.03-1.752-3.03-1.752l-3.058 2.454 1.835 4.908zM7.57 8.335l3.67-4.345-1.223-2.454-3.789 1.352-1.028.93S4.282 5.063 3.9 5.83c-.382.767 0 2.454 0 2.454h3.67v.05zM3.758 21.703l-.945-3.602s-.393-.842-.929-2.3c-.18-.49-.669-1.014-.852-1.565-.023 2.213.987 5.278 2.726 7.467z" fill="#111"/></g></g></svg>